:SAMPLES-PER-SECOND 30
:FULLY-SPECIFIED
:DEGREES
88
root  -2.18935 40.939 1.03466 -6.45373 -80.4007 7.2563
RightUpLeg  3.27208 -2.12082 -1.73825
RightLeg  -1.50387 -24.9798 0.845773
RightFoot  -1.49516 -0.231067 2.60341
RightToes  -3.10678e-008 1.75238e-005 3.56266e-009
Spine  -5.30871 0.222453 0.0333026
Spine1  6.40322 0.260786 0.219279
HEad  -8.49206 -11.2759 2.29502
LeftShoulder1  4.1276 -8.11409 -29.5141
LeftArm  -21.2532 -46.7063 -60.2104
LeftForeArm  118.649 1.10117 8.17561
LeftHand  -0.851702 -5.17493 9.64677
RightShoulder  4.79964 9.58386 30.7413
RightArm  -34.164 -1.63282 43.6742
RightForeArm  84.9731 -3.61348 -3.30622
RightHand  0.522741 5.27455 5.36663
LeftUpLeg  0.14951 -0.443689 0.52465
LeftLeg  -0.801731 5.97217 -0.596201
LeftFoot  0.0525662 0.243907 -2.44198
LeftToes  4.76857e-008 1.46588e-008 1.31384e-009
89
root  -2.09748 40.9581 1.05399 -11.4415 -83.4949 11.8464
RightUpLeg  3.22111 -1.82259 -1.67598
RightLeg  -1.56969 -22.0966 0.688029
RightFoot  -1.08828 -0.211731 2.32076
RightToes  -3.10678e-008 1.75238e-005 3.56266e-009
Spine  -5.17202 0.614136 1.31436
Spine1  6.83966 0.833299 -1.03713
HEad  -8.48007 -8.43498 1.41143
LeftShoulder1  4.71669 -8.96381 -31.8446
LeftArm  -28.1327 -32.0025 -51.9489
LeftForeArm  122.79 0.976694 7.819
LeftHand  -0.858742 -4.64894 10.2222
RightShoulder  4.33047 8.85273 29.1027
RightArm  -32.7569 15.9964 44.9615
RightForeArm  82.7849 -3.59905 -3.37222
RightHand  0.503706 5.00281 5.33766
LeftUpLeg  1.17324 -0.0874735 0.681057
LeftLeg  -1.55156 8.79011 -0.82807
LeftFoot  0.15689 0.240143 -2.38017
LeftToes  4.76857e-008 1.46588e-008 1.31384e-009
90
root  -2.04205 40.9671 1.07771 2.91203 -87.4542 -2.59418
RightUpLeg  2.69789 -1.35767 -1.48466
RightLeg  -1.39087 -18.7205 0.362386
RightFoot  -0.766858 -0.205397 2.23604
RightToes  -3.10678e-008 1.75238e-005 3.56266e-009
Spine  -4.35059 0.677663 2.21167
Spine1  6.21034 0.982655 -1.78565
HEad  -8.68008 -4.79182 0.641165
LeftShoulder1  5.02898 -9.2815 -33.3485
LeftArm  -31.3265 -14.9306 -46.2582
LeftForeArm  127.287 0.957774 6.80861
LeftHand  -0.845067 -3.74602 10.9774
RightShoulder  4.04343 8.57552 27.4937
RightArm  -30.1735 33.2969 47.8285
RightForeArm  78.0941 -3.88589 -3.04119
RightHand  0.379034 5.46361 3.70384
LeftUpLeg  1.87517 0.252895 0.884842
LeftLeg  -2.06345 12.2961 -1.08683
LeftFoot  0.0470009 0.242223 -2.45455
LeftToes  4.76857e-008 1.46588e-008 1.31384e-009
91
root  -2.0479 40.9683 1.1101 -120.497 -88.2321 121.11
RightUpLeg  1.85341 -0.939051 -1.35543
RightLeg  -1.24586 -15.2245 0.0951707
RightFoot  -0.501661 -0.193234 2.05503
RightToes  -3.10678e-008 1.75238e-005 3.56266e-009
Spine  -3.44146 0.672802 3.43929
Spine1  5.08056 1.19971 -3.23026
HEad  -9.23956 -1.19406 0.538759
LeftShoulder1  4.9118 -9.00636 -33.2703
LeftArm  -33.224 3.4361 -44.6251
LeftForeArm  134.003 0.74543 6.4443
LeftHand  -0.851766 -4.09869 10.6723
RightShoulder  3.61566 8.22206 24.7081
RightArm  -25.1107 48.2207 53.4478
RightForeArm  68.4189 -4.26601 -1.97789
RightHand  0.278318 4.56914 2.95768
LeftUpLeg  2.2358 0.296463 0.866362
LeftLeg  -2.54857 16.1438 -1.2415
LeftFoot  -0.11476 0.231079 -2.33946
LeftToes  4.76857e-008 1.46588e-008 1.31384e-009
92
root  -2.1177 40.975 1.14382 -175.647 -84.9742 176.951
RightUpLeg  0.762434 -0.415407 -1.15769
RightLeg  -1.2386 -12.1174 -0.133568
RightFoot  -0.169795 -0.185694 1.9379
RightToes  -3.10678e-008 1.75238e-005 3.56266e-009
Spine  -2.83236 1.24992 4.89028
Spine1  3.85238 2.09047 -5.19126
HEad  -10.0705 1.01323 1.35848
LeftShoulder1  4.72354 -8.67375 -32.809
LeftArm  -36.9805 19.9601 -45.2155
LeftForeArm  140.694 0.252008 7.57585
LeftHand  -0.90608 -3.92039 11.5772
RightShoulder  2.73888 6.56298 20.8214
RightArm  -18.8932 60.1405 61.4484
RightForeArm  60.3643 -2.76697 -1.65702
RightHand  0.243724 4.91517 2.44721
LeftUpLeg  2.17519 0.254646 0.830921
LeftLeg  -2.91442 19.8377 -1.35936
LeftFoot  -0.306435 0.227982 -2.33664
LeftToes  4.76857e-008 1.46588e-008 1.31384e-009
93
root  -2.26686 40.9725 1.13738 -176.408 -82.3344 178.426
RightUpLeg  0.0759754 0.175296 -0.767772
RightLeg  -1.54257 -10.112 -0.291356
RightFoot  0.0832818 -0.184683 1.9122
RightToes  -3.10678e-008 1.75238e-005 3.56266e-009
Spine  -2.61186 2.1863 4.9903
Spine1  2.58383 3.02188 -5.3913
HEad  -10.6221 1.34021 2.00733
LeftShoulder1  4.30976 -8.08286 -31.1479
LeftArm  -41.2768 36.128 -48.314
LeftForeArm  144.665 -0.738733 8.11831
LeftHand  -0.961817 -3.01683 13.4643
RightShoulder  1.80305 3.95079 17.7498
RightArm  -10.8756 68.799 69.8643
RightForeArm  56.1585 0.497249 -1.42304
RightHand  0.139059 4.86812 1.27081
LeftUpLeg  1.89755 0.483319 1.09106
LeftLeg  -2.81339 22.2062 -1.47896
LeftFoot  -0.728863 0.231731 -2.41845
LeftToes  4.76857e-008 1.46588e-008 1.31384e-009
94
root  -2.41306 40.9717 1.10417 -177.234 -80.6565 179.698
RightUpLeg  -0.210178 0.512116 -0.52902
RightLeg  -1.82699 -8.78702 -0.378002
RightFoot  0.202691 -0.192065 1.98527
RightToes  -3.10678e-008 1.75238e-005 3.56266e-009
Spine  -3.46761 2.79601 5.35266
Spine1  3.04365 3.81065 -6.38133
HEad  -11.2893 1.15098 2.88386
LeftShoulder1  3.46784 -6.95847 -27.0813
LeftArm  -46.6997 49.7632 -54.1304
LeftForeArm  146.813 -2.94957 7.63028
LeftHand  -1.00039 -3.7179 13.0021
RightShoulder  1.15949 1.54892 16.1217
RightArm  3.40727 76.7719 82.1006
RightForeArm  50.9935 1.80625 -0.369113
RightHand  0.1658 4.65923 1.61847
LeftUpLeg  1.87404 0.534692 1.18494
LeftLeg  -2.86015 23.8343 -1.47761
LeftFoot  -0.975499 0.236843 -2.51552
LeftToes  4.76857e-008 1.46588e-008 1.31384e-009
